{"title":"In.Bruges.2008.1080p.BluRay.H264.AAC-RARBG","uid":12559394,"size":2192007286,"categoryP":"video","categoryS":"hd___movies","magnet":"?xt=urn:btih:c958f50b67fa6c6f9526b83efd54d56b7f295547&amp;dn=In.Bruges.2008.1080p.BluRay.H264.AAC-RARBG&amp;tr=udp%3A%2F%2Ftracker.leechers-paradise.org%3A6969&amp;tr=udp%3A%2F%2Fzer0day.ch%3A1337&amp;tr=udp%3A%2F%2Fopen.demonii.com%3A1337&amp;tr=udp%3A%2F%2Ftracker.coppersurfer.tk%3A6969&amp;tr=udp%3A%2F%2Fexodus.desync.com%3A6969","seeders":5,"leechers":4,"uploader":null,"files":6,"time":1444683467,"description":"Video\r\nID                                       : 1\r\nFormat                                   : AVC\r\nFormat/Info                              : Advanced Video Codec\r\nFormat profile                           :   \r\nFormat settings, CABAC                   : Yes\r\nFormat settings, ReFrames                : 4 frames\r\nCodec ID                                 : avc1\r\nCodec ID/Info                            : Advanced Video Coding\r\nDuration                                 : 1h 46mn\r\nBit rate                                 : 2 500 Kbps\r\nWidth                                    : 1 920 pixels\r\nHeight                                   : 814 pixels\r\nDisplay aspect ratio                     : 2.35:1\r\nFrame rate mode                          : Constant\r\nFrame rate                               : 24.000 fps\r\nColor space                              : YUV\r\nChroma subsampling                       : 4:2:0\r\nBit depth                                : 8 bits\r\nScan type                                : Progressive\r\nBits/(Pixel*Frame)                       : 0.067\r\nStream size                              : 1.87 GiB (92%)\r\nWriting library                          : x264 core 148 r2597M e86f3a1\r\nEncoding settings                        : cabac=1 / ref=4 / deblock=1:-1:-1 / analyse=0x3:0x113 / me=umh / subme=9 / psy=1 / psy_rd=1.00:0.15 / mixed_ref=1 / me_range=24 / chroma_me=1 / trellis=2 / 8x8dct=1 / cqm=0 / deadzone=21,11 / fast_pskip=1 / chroma_qp_offset=-3 / threads=32 / lookahead_threads=4 / sliced_threads=0 / nr=0 / decimate=1 / interlaced=0 / bluray_compat=0 / constrained_intra=0 / bframes=3 / b_pyramid=2 / b_adapt=1 / b_bias=0 / direct=1 / weightb=1 / open_gop=0 / weightp=2 / keyint=250 / keyint_min=25 / scenecut=40 / intra_refresh=0 / rc_lookahead=50 / rc=2pass / mbtree=1 / bitrate=2500 / ratetol=1.0 / qcomp=0.60 / qpmin=0 / qpmax=69 / qpstep=4 / cplxblur=20.0 / qblur=0.5 / vbv_maxrate=31250 / vbv_bufsize=31250 / nal_hrd=none / filler=0 / ip_ratio=1.40 / aq=3:1.00\r\nEncoded date                             : UTC 1904-01-01 00:00:00\r\nTagged date                              : UTC 1904-01-01 00:00:00\r\n\r\nAudio\r\nID                                       : 2\r\nFormat                                   : AAC\r\nFormat/Info                              : Advanced Audio Codec\r\nFormat profile                           : LC\r\nCodec ID                                 : 40\r\nDuration                                 : 1h 46mn\r\nBit rate mode                            : Constant\r\nBit rate                                 : 224 Kbps\r\nChannel(s)                               : 2 channels\r\nChannel(s)_Original                      : 6 channels\r\nChannel positions                        : Front: L C R, Side: L R, LFE\r\nSampling rate                            : 48.0 KHz\r\nCompression mode                         : Lossy\r\nStream size                              : 171 MiB (8%)\r\nLanguage                                 : English\r\nEncoded date                             : UTC 1904-01-01 00:00:00\r\nTagged date                              : UTC 1904-01-01 00:00:00\r\n\r\nMenu #1\r\nID                                       : 3\r\nCodec ID                                 : text\r\nDuration                                 : 1h 46mn\r\nLanguage                                 : English\r\nEncoded date                             : UTC 1904-01-01 00:00:00\r\nTagged date                              : UTC 1904-01-01 00:00:00\r\nBit rate mode                            : CBR\r\n00:00:00.000                             : 00:00:00.000\r\n00:08:29.157                             : 00:08:29.125\r\n00:18:17.782                             : 00:18:17.750\r\n00:27:38.740                             : 00:27:38.708\r\n00:36:55.824                             : 00:36:55.792\r\n00:46:59.990                             : 00:46:59.958\r\n00:58:13.449                             : 00:58:13.417\r\n01:07:48.699                             : 01:07:48.667\r\n01:16:28.615                             : 01:16:28.583\r\n01:24:42.657                             : 01:24:42.625\r\n01:32:42.240                             : 01:32:42.208\r\n01:39:59.407                             : 01:39:59.375\r\n\r\nMenu #2\r\n00:00:00.032                             : 00:00:00.000\r\n00:08:29.157                             : 00:08:29.125\r\n00:18:17.782                             : 00:18:17.750\r\n00:27:38.740                             : 00:27:38.708\r\n00:36:55.824                             : 00:36:55.792\r\n00:46:59.990                             : 00:46:59.958\r\n00:58:13.449                             : 00:58:13.417\r\n01:07:48.699                             : 01:07:48.667\r\n01:16:28.615                             : 01:16:28.583\r\n01:24:42.657                             : 01:24:42.625\r\n01:32:42.240                             : 01:32:42.208\r\n01:39:59.407                             : 01:39:59.375","torrent":{"xt":"urn:btih:c958f50b67fa6c6f9526b83efd54d56b7f295547","amp;dn":"In.Bruges.2008.1080p.BluRay.H264.AAC-RARBG","amp;tr":["udp%3A%2F%2Ftracker.leechers-paradise.org%3A6969","udp%3A%2F%2Fzer0day.ch%3A1337","udp%3A%2F%2Fopen.demonii.com%3A1337","udp%3A%2F%2Ftracker.coppersurfer.tk%3A6969","udp%3A%2F%2Fexodus.desync.com%3A6969"],"infoHash":"c958f50b67fa6c6f9526b83efd54d56b7f295547","infoHashBuffer":{"type":"Buffer","data":[201,88,245,11,103,250,108,111,149,38,184,62,253,84,213,107,127,41,85,71]},"announce":[],"urlList":[]}}